<svg width="21" height="8" viewBox="0 0 21 8" fill="none" xmlns="http://www.w3.org/2000/svg">
<path d="M20.5 3.99999L20.8536 4.35354C20.9474 4.25977 21 4.1326 21 3.99999C21 3.86738 20.9474 3.7402 20.8536 3.64644L20.5 3.99999ZM17.6716 1.17156L18.0252 0.818009C17.9553 0.747865 17.8661 0.700054 17.769 0.680637C17.6719 0.661219 17.5713 0.67107 17.4798 0.708939C17.3883 0.746809 17.3101 0.810992 17.2551 0.893353C17.2001 0.975713 17.1709 1.07254 17.171 1.17156L17.6716 1.17156ZM17.6716 6.82842L17.171 6.82842C17.1709 6.92744 17.2001 7.02427 17.2551 7.10663C17.3101 7.18899 17.3883 7.25317 17.4798 7.29104C17.5713 7.32891 17.6719 7.33876 17.769 7.31934C17.8661 7.29992 17.9553 7.25211 18.0252 7.18197L17.6716 6.82842ZM17.6716 3.49936L0.70105 3.49936L0.70105 4.50062L17.6716 4.50062V3.49936ZM20.8536 3.64644L18.0252 0.818009L17.3181 1.52512L20.1465 4.35354L20.8536 3.64644ZM17.171 1.17156V6.82842L18.1722 6.82842L18.1722 1.17156L17.171 1.17156ZM18.0252 7.18197L20.8536 4.35354L20.1465 3.64644L17.3181 6.47486L18.0252 7.18197Z" fill="#333333" fill-opacity="0.6"/>
</svg>
